# xmcd
#
# Track frame offsets: 
#        150
#        25761
#        46242
#        66609
#        94436
#        120691
#        143695
#        158838
#        187802
#        207459
#        240420
#        258401
#        277275
#
# Disc length: 4028 seconds
#
# Revision: 0
# Processed by: cddbd v1.5.2PL0 Copyright (c) Steve Scherf et al.
# Submitted via: ExactAudioCopy v0.99pb3
#
DISCID=c00fba0d
DTITLE=Zoot Money's Big Roll Band - Full Circle
DYEAR=2007
DGENRE=R&B
TTITLE0=Captain America
TTITLE1=Roll With My Baby
TTITLE2=Heaven and Earth and the Syars
TTITLE3=Born to Live the Blues
TTITLE4=Hide nor Hair
TTITLE5=Whach Cha Gonna Do
TTITLE6=Fog on the Highway
TTITLE7=May the Circle be Unbroken
TTITLE8=It Never Rains But It Pours
TTITLE9=Medley - Barefootin' Walking the Dog
TTITLE10=It Shhould've Been Me
TTITLE11=Wild Women and Desparate Men
TTITLE12=Promised Land
EXTD=
EXTT0=
EXTT1=
EXTT2=
EXTT3=
EXTT4=
EXTT5=
EXTT6=
EXTT7=
EXTT8=
EXTT9=
EXTT10=
EXTT11=
EXTT12=
PLAYORDER=
